<?xml version="1.0" encoding="utf-8"?>
<!-- Generator: Adobe Illustrator 22.0.1, SVG Export Plug-In . SVG Version: 6.00 Build 0)  -->
<svg version="1.1" id="Layer_1" xmlns="http://www.w3.org/2000/svg" xmlns:xlink="http://www.w3.org/1999/xlink" x="0px" y="0px"
	 viewBox="0 0 768 1024" style="enable-background:new 0 0 768 1024;" xml:space="preserve">
<g>
	<path d="M384,209.7c91.3,0,102.1,0.3,138.2,2c33.3,1.5,51.4,7.1,63.5,11.8c16,6.2,27.4,13.6,39.3,25.6c12,12,19.4,23.4,25.6,39.3
		c4.7,12,10.3,30.2,11.8,63.5c1.6,36.1,2,46.9,2,138.2s-0.3,102.1-2,138.2c-1.5,33.3-7.1,51.4-11.8,63.5
		c-6.2,16-13.6,27.4-25.6,39.3c-12,12-23.4,19.4-39.3,25.6c-12,4.7-30.2,10.3-63.5,11.8c-36.1,1.6-46.9,2-138.2,2
		s-102.1-0.3-138.2-2c-33.3-1.5-51.4-7.1-63.5-11.8c-16-6.2-27.4-13.6-39.3-25.6c-12-12-19.4-23.4-25.6-39.3
		c-4.7-12-10.3-30.2-11.8-63.5c-1.6-36.1-2-46.9-2-138.2s0.3-102.1,2-138.2c1.5-33.3,7.1-51.4,11.8-63.5c6.2-16,13.6-27.4,25.6-39.3
		c12-12,23.4-19.4,39.3-25.6c12-4.7,30.2-10.3,63.5-11.8C281.9,210,292.7,209.7,384,209.7 M384,148.1c-92.9,0-104.5,0.4-141,2.1
		c-36.4,1.7-61.3,7.4-83,15.9c-22.5,8.7-41.6,20.4-60.6,39.4c-19,19-30.7,38.1-39.4,60.6c-8.5,21.8-14.2,46.6-15.9,83
		c-1.7,36.5-2.1,48.1-2.1,141c0,92.9,0.4,104.5,2.1,141c1.7,36.4,7.4,61.3,15.9,83c8.7,22.5,20.4,41.6,39.4,60.6
		c19,19,38.1,30.7,60.6,39.4c21.8,8.5,46.6,14.2,83,15.9c36.5,1.7,48.1,2.1,141,2.1s104.5-0.4,141-2.1c36.4-1.7,61.3-7.4,83-15.9
		c22.5-8.7,41.6-20.4,60.6-39.4c19-19,30.7-38.1,39.4-60.6c8.5-21.8,14.2-46.6,15.9-83c1.7-36.5,2.1-48.1,2.1-141
		s-0.4-104.5-2.1-141c-1.7-36.4-7.4-61.3-15.9-83c-8.7-22.5-20.4-41.6-39.4-60.6c-19-19-38.1-30.7-60.6-39.4
		c-21.8-8.5-46.6-14.2-83-15.9C488.6,148.5,476.9,148.1,384,148.1L384,148.1z"/>
	<path d="M384,314.4c-97,0-175.6,78.6-175.6,175.6S287.1,665.6,384,665.6S559.6,587,559.6,490S481,314.4,384,314.4z M384,604
		c-63,0-114-51-114-114s51-114,114-114c63,0,114,51,114,114S447,604,384,604z"/>
	<circle cx="566.6" cy="307.5" r="41"/>
</g>
</svg>
