<?xml version="1.0" encoding="utf-8"?>
<!-- Generator: Adobe Illustrator 22.0.1, SVG Export Plug-In . SVG Version: 6.00 Build 0)  -->
<svg version="1.1" id="Layer_1" xmlns="http://www.w3.org/2000/svg" xmlns:xlink="http://www.w3.org/1999/xlink" x="0px" y="0px"
	 viewBox="0 0 768 1024" style="enable-background:new 0 0 768 1024;" xml:space="preserve">
<style type="text/css">
</style>
<g>
	<g>
		<g>
			<path class="st0" d="M690.8,137H78.1C48.8,137,25,160.3,25,189v617.9c0,28.8,23.8,52.1,53.1,52.1h612.7
				c29.3,0,53.2-23.3,53.2-52.1V189C744,160.3,720.1,137,690.8,137z M238.2,752.2H131.6V407.7h106.7V752.2z M184.9,360.6
				c-34.2,0-61.8-27.8-61.8-62.1c0-34.2,27.7-62.1,61.8-62.1c34.1,0,61.8,27.8,61.8,62.1C246.7,332.8,219,360.6,184.9,360.6z
				 M637.7,752.2H531.1V584.7c0-40-0.7-91.4-55.4-91.4c-55.5,0-64,43.5-64,88.5v170.5H305.1V407.7h102.3v47.1h1.4
				c14.2-27.1,49-55.6,100.9-55.6c108,0,127.9,71.4,127.9,164.1V752.2z"/>
		</g>
	</g>
</g>
</svg>
